<?xml version="1.0" encoding="iso-8859-1"?>
<!-- Generator: Adobe Illustrator 18.0.0, SVG Export Plug-In . SVG Version: 6.00 Build 0)  -->
<!DOCTYPE svg PUBLIC "-//W3C//DTD SVG 1.1//EN" "http://www.w3.org/Graphics/SVG/1.1/DTD/svg11.dtd">
<svg version="1.1" id="Layer_1" xmlns="http://www.w3.org/2000/svg" xmlns:xlink="http://www.w3.org/1999/xlink" x="0px" y="0px"
	 viewBox="0 0 236 40" style="enable-background:new 0 0 236 40;" xml:space="preserve">
<path style="fill:#95D600;" d="M26.566,39.615l-1.21-2.745L12.382,5.641c-0.194-0.468-0.568-0.806-1.007-0.972l0.003-0.004
	c0,0-1.318-0.553-3.19,0.12l0.87,2.037C9.075,6.88,9.095,6.939,9.12,6.996l12.082,29.083l-1.828,0.001
	c-1.673,0.002-2.505-1.29-2.818-1.943L4.718,5.645C4.521,5.169,4.138,4.828,3.69,4.665c0,0-1.317-0.553-3.19,0.12l1.307,3.062
	l12.747,30.681c0.273,0.658,0.917,1.089,1.631,1.089h0.001l5.443-0.004v0.004H26.566z"/>
<path style="fill:#95D600;" d="M35.458,7.726L35.458,7.726l-3.851-3.847l0.002-0.002l-3.492-3.492L27.056,3.12l-6.373,15.188
	c-0.196,0.475-0.168,0.984,0.032,1.416l-0.002,0c0,0,0.541,1.322,2.34,2.17l0.987-2.457L29.41,6.678l1.294,1.292
	c1.584,1.581,0.467,3.735,0.467,3.735l0.038-0.047L25,27.367c-0.193,0.469-0.169,0.972,0.025,1.401l-0.001,0
	c0,0,0.54,1.322,2.34,2.17l0.843-2.097c0.021-0.042,0.042-0.083,0.06-0.126l7.576-19.067C36.114,8.989,35.963,8.231,35.458,7.726"/>
<polygon style="fill:#FFFFFF;" points="62.712,11.411 65.409,11.411 58.693,30.453 56.157,30.453 49.738,11.411 52.435,11.411 
	57.479,27.324 "/>
<polygon style="fill:#FFFFFF;" points="71.448,21.768 71.448,28.242 82.453,28.242 82.453,30.453 68.994,30.453 68.994,11.411 
	82.129,11.411 82.129,13.649 71.448,13.649 71.448,19.529 80.726,19.529 80.726,21.768 "/>
<path style="fill:#FFFFFF;" d="M90.056,22.361v8.091h-2.481V11.411h7.066c2.643,0.026,4.208,0.026,5.691,1.159
	c1.402,1.052,1.996,2.644,1.996,4.397c0,4.451-3.588,5.071-4.504,5.232l5.34,8.253h-3.021l-5.178-8.091H90.056z M90.056,20.258
	h5.043c0.809,0,1.565,0,2.32-0.189c1.754-0.431,2.374-1.699,2.374-3.075c0-0.485-0.054-1.78-1.133-2.67
	c-0.998-0.837-2.238-0.809-3.695-0.809h-4.909V20.258z"/>
<polygon style="fill:#FFFFFF;" points="113.168,13.622 113.168,30.453 110.605,30.453 110.605,13.622 104.887,13.622 
	104.887,11.384 118.859,11.384 118.859,13.622 "/>
<path style="fill:#FFFFFF;" d="M129.625,30.939c-5.799,0-9.522-4.074-9.522-10.008c0-7.066,4.882-10.007,9.603-10.007
	c5.34,0,9.574,3.614,9.574,9.818C139.28,26.461,135.936,30.939,129.625,30.939 M129.706,12.975c-4.801,0-6.851,3.696-6.851,7.984
	c0,3.991,1.969,7.984,6.878,7.984c5.124,0,6.824-4.261,6.797-8.172C136.502,16.158,134.102,12.975,129.706,12.975"/>
<polygon style="fill:#FFFFFF;" points="144.575,11.472 146.4,11.472 146.4,19.899 157.829,19.899 157.829,11.472 159.654,11.472 
	159.654,30.581 157.829,30.581 157.829,21.562 146.4,21.562 146.4,30.581 144.575,30.581 "/>
<path style="fill:#FFFFFF;" d="M163.659,21.027c0-1.271,0.162-2.504,0.492-3.706c0.33-1.196,0.84-2.267,1.52-3.208
	c0.679-0.934,1.538-1.694,2.572-2.267c1.04-0.573,2.267-0.86,3.681-0.86c1.413,0,2.641,0.286,3.675,0.86
	c1.04,0.573,1.899,1.333,2.578,2.267c0.679,0.941,1.184,2.012,1.514,3.208c0.33,1.202,0.498,2.435,0.498,3.706
	c0,1.271-0.168,2.504-0.498,3.706c-0.33,1.196-0.835,2.267-1.514,3.208c-0.679,0.934-1.538,1.694-2.578,2.267
	c-1.035,0.573-2.262,0.86-3.675,0.86c-1.414,0-2.641-0.286-3.681-0.86c-1.034-0.573-1.893-1.333-2.572-2.267
	c-0.679-0.941-1.19-2.012-1.52-3.208C163.821,23.53,163.659,22.297,163.659,21.027 M165.484,21.027c0,1.003,0.118,1.999,0.362,2.99
	c0.242,0.997,0.623,1.893,1.152,2.684c0.529,0.798,1.202,1.445,2.012,1.95c0.816,0.498,1.788,0.747,2.915,0.747
	c1.128,0,2.099-0.249,2.909-0.747c0.816-0.504,1.489-1.152,2.018-1.95c0.523-0.791,0.909-1.688,1.152-2.684
	c0.243-0.99,0.361-1.987,0.361-2.99c0-0.984-0.118-1.974-0.361-2.977c-0.243-1.003-0.629-1.906-1.152-2.697
	c-0.53-0.798-1.203-1.445-2.018-1.949c-0.809-0.498-1.781-0.748-2.909-0.748c-1.127,0-2.099,0.249-2.915,0.748
	c-0.809,0.504-1.482,1.152-2.012,1.949c-0.53,0.791-0.91,1.694-1.152,2.697C165.602,19.052,165.484,20.042,165.484,21.027"/>
<polygon style="fill:#FFFFFF;" points="184.027,11.472 186.257,11.472 192.454,27.467 192.51,27.467 198.707,11.472 200.937,11.472 
	200.937,30.581 199.112,30.581 199.112,14.96 199.057,14.96 193.095,30.581 191.862,30.581 185.908,14.96 185.852,14.96 
	185.852,30.581 184.027,30.581 "/>
<polygon style="fill:#FFFFFF;" points="205.335,11.472 217.842,11.472 217.842,13.135 207.16,13.135 207.16,19.899 216.795,19.899 
	216.795,21.562 207.16,21.562 207.16,28.918 218.408,28.918 218.408,30.581 205.335,30.581 "/>
<path style="fill:#FFFFFF;" d="M223.074,24.838c0.037,0.803,0.193,1.495,0.461,2.068c0.268,0.573,0.635,1.047,1.097,1.42
	c0.467,0.373,1.021,0.648,1.663,0.816c0.648,0.174,1.364,0.255,2.148,0.255c0.754,0,1.445-0.093,2.08-0.28
	c0.636-0.187,1.19-0.448,1.664-0.791c0.473-0.343,0.841-0.748,1.102-1.221c0.262-0.474,0.386-1.009,0.386-1.595
	c0-0.735-0.162-1.333-0.492-1.788c-0.33-0.454-0.76-0.834-1.289-1.14c-0.53-0.305-1.14-0.548-1.825-0.741
	c-0.692-0.187-1.389-0.374-2.093-0.56c-0.71-0.187-1.408-0.405-2.092-0.648c-0.692-0.237-1.302-0.554-1.825-0.947
	c-0.529-0.399-0.959-0.903-1.289-1.52c-0.33-0.617-0.498-1.389-0.498-2.323c0-0.872,0.193-1.619,0.579-2.224
	c0.38-0.61,0.872-1.108,1.464-1.507c0.586-0.392,1.24-0.679,1.956-0.86c0.716-0.174,1.413-0.268,2.092-0.268
	c1.632,0,3.034,0.318,4.217,0.94c1.177,0.629,2.049,1.738,2.603,3.332l-1.694,0.909c-0.392-1.252-1.046-2.149-1.955-2.697
	c-0.916-0.548-1.968-0.816-3.171-0.816c-0.479,0-0.977,0.062-1.488,0.199c-0.51,0.131-0.972,0.337-1.383,0.604
	c-0.411,0.268-0.747,0.604-1.003,1.003c-0.261,0.405-0.392,0.866-0.392,1.383c0,0.716,0.168,1.295,0.499,1.731
	c0.33,0.442,0.76,0.804,1.289,1.09c0.523,0.286,1.133,0.517,1.825,0.698c0.685,0.18,1.383,0.355,2.093,0.536
	c0.704,0.18,1.402,0.386,2.093,0.617c0.685,0.231,1.296,0.542,1.825,0.928c0.53,0.386,0.959,0.878,1.289,1.489
	c0.33,0.611,0.493,1.37,0.493,2.28c0,1.9-0.617,3.345-1.85,4.348c-1.234,1.003-2.972,1.507-5.208,1.507
	c-0.965,0-1.843-0.1-2.64-0.287c-0.798-0.186-1.508-0.492-2.124-0.909c-0.617-0.424-1.127-0.966-1.538-1.638
	c-0.418-0.673-0.71-1.489-0.891-2.454L223.074,24.838z"/>
</svg>
